<?xml version="1.0" encoding="UTF-8"?>
<svg 
  width="800" 
  height="800" 
  viewBox="0 0 256 256" 
  xmlns="http://www.w3.org/2000/svg">
  <rect 
    width="256" 
    height="256"
    rx="20"
    ry="20"
    fill="#e60000"/>
  <g transform="translate(3 2) scale(0.90, 1.105)">
    <path
      fill="#000"
      d="m 112.5074,168.32813 h 20.8347 l 7.56418,9.42206 12.73969,14.46485 17.11896,20.03847 h -23.22339 l -11.27993,-13.66863 -9.42206,-11.41263 z m 10.35099,38.21906 q -13.46956,0 -24.41773,-5.90538 -10.881817,-5.90537 -17.25166,-17.25166 -6.369844,-11.41263 -6.369844,-27.80171 0,-16.52178 6.369844,-27.93442 6.369843,-11.41264 17.25166,-17.25166 10.94817,-5.90538 24.41773,-5.90538 13.46957,0 24.35139,5.90538 10.88181,5.83902 17.25166,17.25166 6.43619,11.41264 6.43619,27.93442 0,16.45543 -6.43619,27.86806 -6.36985,11.34629 -17.25166,17.25166 -10.88182,5.83903 -24.35139,5.83903 z m 0,-23.88692 q 6.50255,0 11.01453,-3.18492 4.51197,-3.25127 6.83431,-9.28935 2.32234,-6.10444 2.32234,-14.59756 0,-8.55948 -2.32234,-14.66391 -2.32234,-6.10444 -6.83431,-9.28936 -4.51198,-3.25127 -11.01453,-3.25127 -6.43619,0 -10.94816,3.25127 -4.51198,3.18492 -6.90067,9.28936 -2.32234,6.10443 -2.32234,14.66391 0,8.49312 2.32234,14.59756 2.38869,6.03808 6.90067,9.28935 4.51197,3.18492 10.94816,3.18492 z m 46.51969,7.48435 21.77289,-10.20294 c 5.73223,7.57596 13.18179,13.1412 26.36023,13.1412 11.08097,0 18.14594,-4.48386 18.14594,-10.66806 0,-7.42031 -7.25838,-10.04909 -19.48312,-14.37641 l -6.68371,-2.3211 c -19.29304,-6.64572 -32.09023,-14.99448 -32.09023,-32.61864 0,-16.2333 15.28038,-28.60169 39.15742,-28.60169 16.99993,0 29.22468,4.79334 38.01031,17.31557 l -20.82142,10.8228 c -4.58511,-6.64752 -9.54926,-9.2754 -17.19,-9.2754 -7.83193,0 -12.7983,4.01964 -12.7983,9.2754 0,6.49278 4.96637,9.12246 16.42637,13.1421 l 6.68482,2.3184 c 22.73105,7.88544 35.52823,15.92382 35.52823,34.01039 0,19.48104 -18.90956,30.1473 -44.31386,30.1473 -24.83075,0 -40.87586,-9.58488 -48.70668,-22.10802"/>
  </g>
</svg>
